<?xml version="1.0" encoding="utf-8"?>
<!-- Generator: Adobe Illustrator 24.1.0, SVG Export Plug-In . SVG Version: 6.00 Build 0)  -->
<svg version="1.1"
	 id="svg8" inkscape:version="0.92.3 (2405546, 2018-03-11)" sodipodi:docname="PDF file icon.svg" xmlns:cc="http://creativecommons.org/ns#" xmlns:dc="http://purl.org/dc/elements/1.1/" xmlns:inkscape="http://www.inkscape.org/namespaces/inkscape" xmlns:rdf="http://www.w3.org/1999/02/22-rdf-syntax-ns#" xmlns:sodipodi="http://sodipodi.sourceforge.net/DTD/sodipodi-0.dtd" xmlns:svg="http://www.w3.org/2000/svg"
	 xmlns="http://www.w3.org/2000/svg" xmlns:xlink="http://www.w3.org/1999/xlink" x="0px" y="0px" viewBox="0 0 213.5 262.5"
	 style="enable-background:new 0 0 213.5 262.5;" xml:space="preserve">
<style type="text/css">
	.st0{fill:#FFFFFF;}
</style>
<sodipodi:namedview  bordercolor="#666666" borderopacity="1.0" fit-margin-bottom="0" fit-margin-left="0" fit-margin-right="0" fit-margin-top="0" id="base" inkscape:current-layer="g899" inkscape:cx="122.12727" inkscape:cy="167.02823" inkscape:document-units="mm" inkscape:object-nodes="false" inkscape:pageopacity="0.0" inkscape:pageshadow="2" inkscape:snap-others="false" inkscape:snap-page="false" inkscape:window-height="705" inkscape:window-maximized="1" inkscape:window-width="1366" inkscape:window-x="-8" inkscape:window-y="-8" inkscape:zoom="0.98994949" pagecolor="#ffffff" showgrid="false">
	</sodipodi:namedview>
<g id="layer1" transform="translate(36.076172,-93.731774)" inkscape:groupmode="layer" inkscape:label="Capa 1">
	<g id="g899" transform="matrix(1.4843054,0,0,1.4843054,17.471885,-90.243502)">
		<g id="g876">
			<path class="st0" d="M106.6,160.5c-1.4-3.1-3.6-5.2-3.6-5.2c0,0,0,0,0,0l-26.6-26.1c0,0,0,0,0,0c0,0-2.3-2.2-5.6-3.6
				c-4-1.7-8.1-1.5-8.1-1.5l0.1,0l-80.4,0c-10.1,0-18.3,8.2-18.3,18.3v140.3c0,10.1,8.2,18.3,18.3,18.3H89.5
				c10.1,0,18.3-8.2,18.3-18.3V167.2C107.7,167.2,108,163.8,106.6,160.5z M101.7,167v115.5c0,6.8-5.4,12.3-12.3,12.3H-17.8
				c-6.8,0-12.3-5.4-12.3-12.3V142.2c0-6.8,5.4-12.3,12.3-12.3v0h80.4c0,0,0,0,0.1,0c0,0,3.2,0,5.6,1c2.3,1,3.9,2.4,3.9,2.5
				c0,0,0,0,0,0l26.6,26c0,0,1.6,1.7,2.4,3.4c0.6,1.4,0.7,4,0.7,4C101.7,166.9,101.7,167,101.7,167z"/>
			
				<path id="path2697" inkscape:connector-curvature="0" sodipodi:nodetypes="scccscccscccccssscacccsccccccccccccccccccccaccccccccc" class="st0" d="
				M-0.2,229.2c-4.1-4.1,0.3-9.8,12.5-15.8l7.6-3.8l3-6.5c1.6-3.6,4.1-9.4,5.4-13l2.4-6.5l-1.7-4.8c-2.1-5.9-2.8-14.7-1.5-17.9
				c1.8-4.3,7.6-3.9,9.9,0.8c1.8,3.6,1.6,10.1-0.5,18.4l-1.8,6.8l1.5,2.6c0.9,1.4,3.3,4.9,5.5,7.6l4.1,5.1l5.1-0.7
				c16.2-2.1,21.8,1.5,21.8,6.6c0,6.5-12.8,7.1-23.5-0.5c-2.4-1.7-4.1-3.4-4.1-3.4s-6.7,1.4-10,2.3c-3.4,0.9-5.1,1.5-10.1,3.2
				c0,0-1.8,2.5-2.9,4.4c-4.2,6.9-9.2,12.6-12.8,14.7C6.1,231.2,1.9,231.3-0.2,229.2z M6.3,226.9c2.3-1.4,7-7,10.3-12.1l1.3-2.1
				l-6,3c-9.3,4.7-13.5,9-11.3,11.7C1.9,228.9,3.3,228.8,6.3,226.9L6.3,226.9z M66.5,210c2.3-1.6,1.9-4.8-0.6-6.1
				c-2-1-3.6-1.2-8.8-1.1c-3.2,0.2-8.3,0.9-9.2,1.1c0,0,2.8,1.9,4.1,2.7c1.7,1,5.7,2.7,8.7,3.6C63.5,211.1,65.2,211,66.5,210
				L66.5,210z M42.3,200c-1.4-1.4-3.7-4.5-5.2-6.7c-1.9-2.5-2.9-4.3-2.9-4.3s-1.4,4.6-2.6,7.3l-3.6,9l-1.1,2c0,0,5.6-1.8,8.4-2.6
				c3-0.8,9.1-2,9.1-2L42.3,200z M34.5,168.7c0.4-2.9,0.5-5.9-0.4-7.4c-2.6-2.9-5.8-0.5-5.2,6.3c0.2,2.3,0.7,6.2,1.5,8.6l1.4,4.4
				l1-3.3C33.2,175.6,34,171.7,34.5,168.7L34.5,168.7z"/>
			<g id="g858">
				<path id="path845" inkscape:connector-curvature="0" class="st0" d="M6.9,248.4h6.7c2.1,0,3.9,0.2,5.2,0.6
					c1.3,0.4,2.5,1.3,3.4,2.7c0.9,1.4,1.4,3,1.4,5c0,1.8-0.4,3.3-1.1,4.6c-0.7,1.3-1.7,2.2-3,2.8c-1.2,0.6-3.2,0.9-5.8,0.9h-2.3
					v10.6H6.9L6.9,248.4z M11.3,251.8v9.4h2.2c2,0,3.4-0.4,4.1-1.1c0.8-0.7,1.2-1.9,1.2-3.6c0-1.2-0.3-2.2-0.8-3
					c-0.5-0.8-1.1-1.3-1.7-1.4c-0.6-0.2-1.5-0.3-2.8-0.3L11.3,251.8z"/>
				<path id="path847" inkscape:connector-curvature="0" class="st0" d="M26.9,248.4H33c2.9,0,5.3,0.5,7.1,1.6c1.8,1,3.1,2.6,4,4.7
					c0.9,2.1,1.4,4.4,1.4,6.9c0,2.6-0.4,5-1.2,7.1c-0.8,2.1-2,3.7-3.7,5c-1.7,1.3-4,1.9-7.1,1.9h-6.4V248.4z M31.4,252v19.9h1.9
					c2.6,0,4.5-0.9,5.7-2.7c1.2-1.8,1.8-4.2,1.8-7.2c0-6.6-2.5-10-7.4-10L31.4,252z"/>
				<path id="path849" inkscape:connector-curvature="0" class="st0" d="M49.8,248.4h15v3.6H54.3v8.1h8.4v3.6h-8.4v11.8h-4.5V248.4z
					"/>
			</g>
		</g>
	</g>
</g>
</svg>
